<svg width="566" height="400" viewBox="0 0 566 400" fill="none" xmlns="http://www.w3.org/2000/svg">
<path d="M324.251 63.2737C291.477 62.428 260.262 54.5686 230.455 45.9699C200.649 37.3712 171.125 27.8255 139.136 23.2679C118.561 20.3358 95.028 19.9205 78.4534 28.1192C62.4966 35.9988 57.3415 49.6008 54.5714 62.2609C52.4851 71.7661 51.2596 81.7676 56.9718 90.6651C60.942 96.8432 67.981 102.034 72.8526 107.954C89.8019 128.544 77.8204 153.93 59.4582 174.034C50.8494 183.463 40.8479 192.457 34.1988 202.499C27.5497 212.541 24.4759 224.037 30.2945 234.281C36.0573 244.409 49.796 252.051 64.6792 257.414C94.9065 268.306 130.512 271.421 165.256 273.188C242.143 277.097 319.436 275.401 396.525 273.694C425.056 273.067 453.708 272.434 481.773 269.137C497.36 267.319 513.449 264.427 524.767 257.454C539.129 248.602 542.689 233.613 533.062 222.512C516.918 203.892 472.293 199.263 460.996 179.281C454.787 168.282 461.163 156.032 470.192 145.828C489.557 123.946 522.012 104.748 523.719 79.7318C524.894 62.5546 509.291 45.347 485.166 37.2193C459.881 28.7016 424.813 29.7701 406.167 43.8734C386.949 58.4123 353.192 64.0029 324.251 63.2737Z" fill="#52FEBC"/>
<path d="M160.339 390C221.309 390 270.735 386.486 270.735 382.151C270.735 377.816 221.309 374.302 160.339 374.302C99.3688 374.302 49.9429 377.816 49.9429 382.151C49.9429 386.486 99.3688 390 160.339 390Z" fill="#F5F5F5"/>
<path d="M180.544 95.2328C180.919 93.4655 181.203 91.6121 182.18 90.0878C182.848 89.1294 183.655 88.276 184.575 87.5558C186.125 86.2442 187.781 84.9832 189.71 84.3452C191.64 83.7071 193.908 83.7932 195.529 85.0187C197.149 86.2442 197.833 88.3559 198.086 90.3714C198.43 93.1414 198.086 96.0583 196.714 98.4738C195.144 101.213 192.419 103.031 190.131 105.229C188.472 106.816 187.03 108.614 185.841 110.577C185.3 111.6 184.644 112.558 183.887 113.433C183.502 113.868 183.021 114.207 182.482 114.423C181.943 114.638 181.361 114.724 180.782 114.674C179.805 114.517 179.01 113.838 178.25 113.19C177.313 112.37 174.792 110.906 174.705 109.605C174.645 108.551 176.615 106.161 177.096 105.174C178.592 101.991 179.748 98.6587 180.544 95.2328Z" fill="#FFC9B1"/>
<path d="M180.544 95.2328C180.919 93.4655 181.203 91.6121 182.18 90.0878C182.848 89.1294 183.655 88.276 184.575 87.5558C186.125 86.2442 187.781 84.9832 189.71 84.3452C191.64 83.7071 193.908 83.7932 195.529 85.0187C197.149 86.2442 197.833 88.3559 198.086 90.3714C198.43 93.1414 198.086 96.0583 196.714 98.4738C195.144 101.213 192.419 103.031 190.131 105.229C188.472 106.816 187.03 108.614 185.841 110.577C185.3 111.6 184.644 112.558 183.887 113.433C183.502 113.868 183.021 114.207 182.482 114.423C181.943 114.638 181.361 114.724 180.782 114.674C179.805 114.517 179.01 113.838 178.25 113.19C177.313 112.37 174.792 110.906 174.705 109.605C174.645 108.551 176.615 106.161 177.096 105.174C178.592 101.991 179.748 98.6587 180.544 95.2328Z" fill="#000018" fill-opacity="0.16"/>
<path d="M127.372 145.848C131.429 144.769 135.617 144.258 139.814 144.329C146.818 144.43 154.029 146.126 160.698 143.979C162.42 143.382 164.094 142.656 165.707 141.807C167.049 141.138 168.416 140.45 169.444 139.356C172.761 135.841 174.189 130.549 175.227 125.825C176.265 121.1 176.534 116.249 176.802 111.423C178.529 112.228 180.347 113.023 182.261 112.861C184.175 112.699 186.084 111.24 186.074 109.316C185.791 113.787 185.568 118.315 186.322 122.731C186.616 124.483 187.072 126.21 187.229 127.982C187.796 134.383 184.439 140.779 185.639 147.094C185.837 148.041 185.733 149.026 185.343 149.912C184.952 150.798 184.294 151.539 183.461 152.031C181.74 152.958 179.714 153.074 177.82 153.55C174.108 154.497 170.867 156.857 167.14 157.738C165.403 158.148 163.595 158.245 161.883 158.685C159.422 159.333 157.189 160.741 154.682 161.187C152.804 161.521 150.869 161.293 148.97 161.455C147.319 161.592 145.699 162.027 144.043 162.068C139.992 162.169 136.158 159.875 133.464 156.832C130.77 153.788 129.063 149.534 127.372 145.848Z" fill="#0582F0"/>
<path d="M127.372 145.848C131.429 144.769 135.617 144.258 139.814 144.329C146.818 144.43 154.029 146.126 160.698 143.979C162.42 143.382 164.094 142.656 165.707 141.807C167.049 141.138 168.416 140.45 169.444 139.356C172.761 135.841 174.189 130.549 175.227 125.825C176.265 121.1 176.534 116.249 176.802 111.423C178.529 112.228 180.347 113.023 182.261 112.861C184.175 112.699 186.084 111.24 186.074 109.316C185.791 113.787 185.568 118.315 186.322 122.731C186.616 124.483 187.072 126.21 187.229 127.982C187.796 134.383 184.439 140.779 185.639 147.094C185.837 148.041 185.733 149.026 185.343 149.912C184.952 150.798 184.294 151.539 183.461 152.031C181.74 152.958 179.714 153.074 177.82 153.55C174.108 154.497 170.867 156.857 167.14 157.738C165.403 158.148 163.595 158.245 161.883 158.685C159.422 159.333 157.189 160.741 154.682 161.187C152.804 161.521 150.869 161.293 148.97 161.455C147.319 161.592 145.699 162.027 144.043 162.068C139.992 162.169 136.158 159.875 133.464 156.832C130.77 153.788 129.063 149.534 127.372 145.848Z" fill="#057EEC"/>
<path d="M309.49 152.071C316.385 152.071 323.125 154.116 328.858 157.947C334.591 161.777 339.059 167.222 341.697 173.593C344.336 179.963 345.026 186.972 343.68 193.735C342.335 200.497 339.014 206.709 334.138 211.584C329.262 216.459 323.05 219.779 316.288 221.124C309.525 222.468 302.516 221.777 296.146 219.138C289.776 216.498 284.332 212.03 280.502 206.296C276.672 200.563 274.628 193.822 274.629 186.927C274.63 177.682 278.304 168.817 284.841 162.28C291.379 155.743 300.245 152.071 309.49 152.071ZM309.49 143.462C300.892 143.462 292.487 146.012 285.339 150.789C278.19 155.565 272.619 162.355 269.329 170.298C266.039 178.241 265.178 186.982 266.856 195.414C268.533 203.847 272.674 211.592 278.754 217.672C284.834 223.751 292.58 227.89 301.012 229.567C309.445 231.244 318.185 230.382 326.128 227.091C334.071 223.8 340.86 218.228 345.636 211.079C350.412 203.93 352.96 195.525 352.959 186.927C352.946 175.403 348.362 164.354 340.212 156.206C332.063 148.057 321.014 143.474 309.49 143.462Z" fill="#263238"/>
<path d="M313.243 133.294H303.054V144.02H313.243V133.294Z" fill="#263238"/>
<path d="M340.149 142.892L331.416 137.645L325.892 146.838L334.625 152.086L340.149 142.892Z" fill="#263238"/>
<path d="M358.06 164.119L353.12 155.208L343.739 160.408L348.679 169.319L358.06 164.119Z" fill="#263238"/>
<path d="M352.987 218.354L358.386 209.713L349.29 204.029L343.891 212.67L352.987 218.354Z" fill="#263238"/>
<path d="M270.304 169.316L275.244 160.404L265.863 155.204L260.923 164.116L270.304 169.316Z" fill="#263238"/>
<path d="M275.094 212.666L269.694 204.025L260.599 209.709L265.998 218.35L275.094 212.666Z" fill="#263238"/>
<path d="M284.353 152.085L293.086 146.837L287.562 137.644L278.828 142.891L284.353 152.085Z" fill="#263238"/>
<path d="M313.243 229.834H303.054V240.56H313.243V229.834Z" fill="#263238"/>
<path d="M334.627 221.771L325.893 227.018L331.417 236.212L340.151 230.964L334.627 221.771Z" fill="#263238"/>
<path d="M278.83 230.965L287.564 236.213L293.088 227.019L284.354 221.772L278.83 230.965Z" fill="#263238"/>
<path d="M267.124 182.638H254.788V191.753H267.124V182.638Z" fill="#263238"/>
<path d="M351.856 191.753H364.192V182.638H351.856V191.753Z" fill="#263238"/>
<path d="M390.474 89.3227C397.369 89.3227 404.109 91.3674 409.842 95.1982C415.575 99.029 420.044 104.474 422.682 110.844C425.32 117.214 426.01 124.224 424.665 130.986C423.319 137.749 419.999 143.96 415.123 148.836C410.247 153.711 404.035 157.031 397.272 158.375C390.509 159.72 383.5 159.029 377.13 156.389C370.76 153.75 365.316 149.281 361.486 143.547C357.656 137.814 355.612 131.073 355.613 124.178C355.615 114.934 359.288 106.068 365.826 99.5314C372.363 92.9948 381.229 89.3227 390.474 89.3227ZM390.474 80.7139C381.877 80.7139 373.472 83.2634 366.323 88.0402C359.175 92.8169 353.603 99.6062 350.313 107.55C347.023 115.493 346.162 124.233 347.84 132.666C349.518 141.098 353.658 148.844 359.738 154.923C365.818 161.002 373.564 165.142 381.997 166.819C390.429 168.495 399.17 167.634 407.113 164.343C415.056 161.052 421.845 155.479 426.62 148.33C431.396 141.181 433.945 132.776 433.944 124.178C433.931 112.654 429.346 101.606 421.197 93.4574C413.047 85.3089 401.999 80.7259 390.474 80.7139Z" fill="#263238"/>
<path d="M394.227 70.5503H384.038V81.2759H394.227V70.5503Z" fill="#263238"/>
<path d="M421.137 80.1402L412.403 74.8926L406.879 84.0862L415.613 89.3339L421.137 80.1402Z" fill="#263238"/>
<path d="M439.046 101.369L434.107 92.458L424.726 97.6579L429.665 106.569L439.046 101.369Z" fill="#263238"/>
<path d="M433.969 155.606L439.368 146.966L430.272 141.282L424.873 149.923L433.969 155.606Z" fill="#263238"/>
<path d="M351.285 106.573L356.225 97.6621L346.844 92.4622L341.904 101.374L351.285 106.573Z" fill="#263238"/>
<path d="M356.076 149.921L350.677 141.281L341.581 146.964L346.98 155.605L356.076 149.921Z" fill="#263238"/>
<path d="M365.337 89.3346L374.07 84.0869L368.546 74.8933L359.813 80.1409L365.337 89.3346Z" fill="#263238"/>
<path d="M394.227 167.086H384.038V177.812H394.227V167.086Z" fill="#263238"/>
<path d="M415.611 159.024L406.877 164.272L412.401 173.465L421.135 168.218L415.611 159.024Z" fill="#263238"/>
<path d="M359.811 168.215L368.544 173.463L374.068 164.269L365.335 159.021L359.811 168.215Z" fill="#263238"/>
<path d="M348.103 119.889H335.767V129.004H348.103V119.889Z" fill="#263238"/>
<path d="M432.845 129.004H445.181V119.889H432.845V129.004Z" fill="#263238"/>
<path d="M228.486 86.6386C228.896 86.6386 229.306 86.6386 229.716 86.6386C238.853 86.9503 247.503 90.8388 253.8 97.4666C260.097 104.094 263.539 112.931 263.384 122.072C263.228 131.213 259.488 139.927 252.969 146.337C246.45 152.747 237.674 156.339 228.531 156.34C228.121 156.34 227.711 156.34 227.296 156.34C218.158 156.028 209.509 152.139 203.211 145.511C196.914 138.883 193.472 130.046 193.628 120.904C193.784 111.763 197.525 103.048 204.046 96.639C210.566 90.2296 219.343 86.6382 228.486 86.6386ZM228.486 78.0298C217.085 78.0284 206.14 82.506 198.009 90.4978C189.878 98.4895 185.212 109.356 185.017 120.755C184.822 132.154 189.113 143.174 196.965 151.439C204.817 159.705 215.603 164.555 226.997 164.944C227.503 164.944 228.01 164.969 228.516 164.969C239.917 164.969 250.861 160.491 258.991 152.498C267.12 144.506 271.785 133.64 271.98 122.241C272.174 110.843 267.883 99.8237 260.031 91.5587C252.179 83.2936 241.394 78.4442 230 78.0551C229.494 78.0551 228.987 78.0298 228.481 78.0298H228.486Z" fill="#263238"/>
<path d="M234.113 68.0374L223.93 67.6836L223.558 78.4028L233.741 78.7566L234.113 68.0374Z" fill="#263238"/>
<path d="M260.667 78.5566L252.121 73.0088L246.281 82.0051L254.827 87.5528L260.667 78.5566Z" fill="#263238"/>
<path d="M277.832 100.392L273.205 91.3149L263.649 96.1859L268.277 105.263L277.832 100.392Z" fill="#263238"/>
<path d="M270.886 154.404L276.582 145.956L267.689 139.96L261.993 148.408L270.886 154.404Z" fill="#263238"/>
<path d="M189.947 102.535L195.193 93.8003L185.999 88.2778L180.753 97.0122L189.947 102.535Z" fill="#263238"/>
<path d="M193.518 146.865L188.424 138.001L179.093 143.364L184.187 152.228L193.518 146.865Z" fill="#263238"/>
<path d="M204.598 85.7942L213.508 80.853L208.307 71.4731L199.396 76.4143L204.598 85.7942Z" fill="#263238"/>
<path d="M230.765 164.51L220.582 164.156L220.21 174.875L230.392 175.229L230.765 164.51Z" fill="#263238"/>
<path d="M252.421 157.202L243.511 162.143L248.712 171.523L257.623 166.582L252.421 157.202Z" fill="#263238"/>
<path d="M196.345 164.441L204.891 169.989L210.731 160.993L202.185 155.445L196.345 164.441Z" fill="#263238"/>
<path d="M186.312 115.744L173.984 115.316L173.667 124.426L185.996 124.854L186.312 115.744Z" fill="#263238"/>
<path d="M270.688 127.783L283.016 128.211L283.333 119.101L271.004 118.673L270.688 127.783Z" fill="#263238"/>
<path d="M116.231 343.776C114.977 343.929 113.76 344.308 112.641 344.895C111.122 345.821 110.185 347.457 109.516 349.108C107.84 353.25 107.491 357.798 107.42 362.275C107.359 365.88 107.481 369.572 108.772 372.934C109.126 373.999 109.741 374.958 110.559 375.725C111.28 376.291 112.114 376.695 113.005 376.91C114.93 377.416 117.163 377.416 118.738 376.201C120.49 374.828 120.931 372.413 121.3 370.22C121.807 367.263 122.511 364.143 124.708 362.082C126.339 360.563 128.674 359.803 129.859 357.919C131.271 355.681 130.527 352.759 129.626 350.268C128.841 348.11 127.691 343.73 125.433 342.626C123.174 341.522 118.581 343.35 116.231 343.776Z" fill="#FBBEBE"/>
<path d="M199.519 354.385C198.837 356.8 197.626 359.033 195.975 360.922C194.962 362.077 193.721 363.48 194.253 364.913C194.469 365.398 194.791 365.829 195.195 366.174C202.619 373.441 213.005 376.975 223.31 378.262C223.476 378.307 223.651 378.307 223.817 378.262C224.12 378.125 224.191 377.755 224.232 377.416C224.396 376.342 224.396 375.249 224.232 374.175C223.725 371.643 221.523 369.886 219.365 368.498C217.208 367.111 214.848 365.764 213.643 363.5C212.124 360.684 212.777 357.018 210.989 354.385C209.541 352.243 206.852 351.346 204.3 350.926C203.414 350.789 201.53 349.817 200.755 350.268C199.965 350.724 199.788 353.504 199.519 354.385Z" fill="#FBBEBE"/>
<path d="M115.218 343.512C115.22 343.263 115.129 343.021 114.964 342.834C114.799 342.647 114.57 342.528 114.322 342.499C113.826 342.448 113.325 342.513 112.859 342.687C111.697 343.002 110.511 343.219 109.314 343.335C107.891 343.472 106.437 343.467 105.055 343.841C103.672 344.216 102.32 345.041 101.758 346.373C101.485 347.134 101.361 347.941 101.394 348.748C101.365 351.857 101.736 354.956 102.497 357.97C102.511 358.091 102.552 358.207 102.617 358.309C102.681 358.412 102.769 358.499 102.872 358.562C103.049 358.633 103.262 358.562 103.439 358.643C103.595 358.736 103.712 358.882 103.769 359.054C104.624 360.978 104.822 363.105 105.05 365.212C105.387 368.314 105.814 371.407 106.331 374.489C106.635 376.287 107.01 378.175 108.195 379.553C109.491 381.072 111.547 381.725 113.527 381.994C117.71 382.551 121.933 381.71 126.066 380.849C126.853 380.771 127.594 380.438 128.177 379.902C128.555 379.429 128.736 378.829 128.684 378.226C128.587 376.16 126.688 374.681 124.967 373.547L122.597 371.952C122.431 371.86 122.289 371.732 122.181 371.577C122.069 371.341 122.029 371.077 122.065 370.817L122.217 367.779C120.643 367.804 119.105 368.256 117.767 369.086C116.429 369.916 115.342 371.094 114.621 372.494C114.292 373.147 113.983 373.912 113.299 374.165C112.453 374.484 111.511 373.77 111.228 372.914C111.031 372.03 111.057 371.111 111.304 370.24C112.691 362.806 112.367 355.164 113.213 347.649C113.265 346.806 113.524 345.989 113.968 345.269C114.378 344.702 115.142 344.206 115.218 343.512Z" fill="#252539"/>
<path d="M218.646 372.337C218.996 372.914 219.538 373.349 219.862 373.947C220.186 374.545 220.181 375.416 219.598 375.755C219.255 375.906 218.872 375.945 218.504 375.866C211.069 374.943 204.089 371.786 198.486 366.812C197.556 366.026 196.732 365.122 196.035 364.123C195.382 363.11 194.83 361.92 193.716 361.505C193.05 364.391 192.71 367.344 192.703 370.306C192.703 372.256 192.972 374.484 194.567 375.613C195.206 376.01 195.908 376.296 196.643 376.459L200.122 377.441C200.736 377.673 201.4 377.738 202.046 377.629C202.457 377.517 202.821 377.259 203.241 377.183C203.699 377.134 204.162 377.193 204.594 377.355L207.597 378.231C208.613 378.49 209.607 378.828 210.569 379.244C211.425 379.649 212.22 380.181 213.056 380.631C214.457 381.334 215.911 381.925 217.406 382.399L222.692 384.232C224.137 384.803 225.648 385.191 227.189 385.387C228.253 385.478 229.331 385.387 230.385 385.569C231.185 385.706 231.96 385.994 232.77 386.075C234.105 386.112 235.417 385.724 236.517 384.966C236.946 384.727 237.317 384.397 237.606 383.999C238.366 382.819 237.712 381.265 236.968 380.074C235.596 377.877 233.879 375.816 231.61 374.56C230.689 374.053 229.696 373.679 228.749 373.218C226.055 371.911 224.014 369.729 221.467 368.235C219.062 366.837 217.512 370.478 218.646 372.337Z" fill="#252539"/>
<path d="M144.393 159.49C141.6 161.409 138.4 162.654 135.044 163.126C133.289 163.345 131.521 163.44 129.752 163.41C122.378 163.401 115.017 162.786 107.744 161.572C110.641 158.381 113.568 154.988 114.662 150.806C115.204 148.599 115.315 146.309 114.991 144.06C114.552 141.175 113.864 138.334 112.935 135.568C116.037 135.734 119.148 135.655 122.237 135.33C124 135.153 128.314 133.547 129.833 134.763C131.256 135.892 130.183 139.888 130.158 141.731C130.158 141.797 130.158 141.862 130.158 141.928C130.237 144.726 130.84 147.485 131.935 150.061C134.163 155.044 138.928 159.136 144.393 159.49Z" fill="#FFC9B1"/>
<path opacity="0.1" d="M130.178 141.705C127.958 143.155 125.454 144.113 122.834 144.515C120.213 144.917 117.537 144.753 114.985 144.035C114.547 141.15 113.859 138.309 112.929 135.543C116.032 135.709 119.142 135.629 122.232 135.305C123.994 135.127 128.309 133.522 129.828 134.737C131.276 135.867 130.203 139.862 130.178 141.705Z" fill="black"/>
<path d="M120.029 143.863C130.265 143.863 138.564 135.565 138.564 125.328C138.564 115.092 130.265 106.794 120.029 106.794C109.793 106.794 101.495 115.092 101.495 125.328C101.495 135.565 109.793 143.863 120.029 143.863Z" fill="#FFC9B1"/>
<path d="M198.669 219.114C198.679 220.61 198.299 222.083 197.566 223.388C196.834 224.692 195.774 225.783 194.491 226.553C193.058 227.306 191.522 227.843 189.933 228.149C181.456 230.174 172.771 231.84 164.066 231.344C162.182 231.238 160.268 231.015 158.577 230.189C156.885 229.364 155.442 227.819 155.189 225.956C155.178 225.495 155.087 225.039 154.921 224.609C154.585 224.134 154.145 223.742 153.634 223.464C152.851 222.863 152.253 222.054 151.907 221.129C151.562 220.204 151.483 219.201 151.68 218.233C150.621 218.704 149.517 217.641 149.021 216.592C148.525 215.544 148.135 214.278 147.071 213.838C146.347 213.529 145.512 213.711 144.747 213.513C143.526 213.2 142.782 211.994 141.921 211.093C140.164 209.214 137.672 208.242 135.373 207.087C128.552 203.649 122.992 198.2 117.548 192.842C114.808 190.143 112.048 187.424 109.876 184.233C109.263 183.337 108.711 182.415 108.19 181.468C106.543 178.31 105.115 175.043 103.916 171.69C103.227 169.897 102.528 168.003 102.812 166.119C102.837 165.947 102.872 165.775 102.913 165.613C103.266 164.389 103.835 163.238 104.594 162.215C106.478 159.445 108.949 156.822 112.19 155.971C115.431 155.12 118.667 156.148 121.959 156.847C123.052 157.09 124.16 157.259 125.276 157.353C128.765 157.601 132.218 156.665 135.591 155.733L139.268 154.72C141.111 154.214 142.033 151.985 143.896 151.596C144.729 151.476 145.577 151.519 146.393 151.722C150.176 152.441 153.989 153.368 157.316 155.292C158.057 155.722 158.766 156.205 159.438 156.736C161.808 158.609 163.681 161.106 164.37 164.023C165.13 167.228 164.416 170.651 165.185 173.857C165.813 176.506 167.403 178.815 168.963 181.048L178.012 193.971C180.032 197.013 182.257 199.913 184.672 202.651C189.523 207.933 198.547 211.928 198.669 219.114Z" fill="#00A1FF"/>
<path d="M174.503 95.2328C174.878 93.4655 175.156 91.6121 176.134 90.0878C176.802 89.1294 177.609 88.276 178.529 87.5558C180.084 86.2442 181.734 84.9832 183.664 84.3452C185.593 83.7071 187.862 83.7932 189.482 85.0187C191.103 86.2442 191.787 88.3559 192.04 90.3714C192.384 93.1414 192.04 96.0583 190.667 98.4738C189.098 101.213 186.373 103.031 184.084 105.229C182.427 106.817 180.986 108.615 179.795 110.577C179.254 111.6 178.598 112.558 177.84 113.433C177.456 113.868 176.975 114.207 176.436 114.423C175.896 114.638 175.314 114.724 174.736 114.674C173.764 114.517 172.964 113.838 172.204 113.19C171.267 112.37 168.74 110.906 168.659 109.605C168.598 108.551 170.568 106.161 171.049 105.174C172.545 101.99 173.703 98.6582 174.503 95.2328Z" fill="#FFC9B1"/>
<path d="M239.642 309.927C237.312 314.227 234.76 318.415 232.684 322.841C231.473 325.428 230.425 328.092 229.078 330.609C227.61 333.354 225.802 335.906 224.267 338.62C220.403 345.462 218.251 353.179 216.261 360.78C210.694 359.947 205.338 358.056 200.482 355.21C200.152 355.018 199.838 354.815 199.535 354.597C198.236 353.667 197.15 352.47 196.349 351.088C198.188 344.135 200.076 337.066 203.819 330.923C205.039 328.897 206.437 327.049 207.693 325.074C211.334 319.352 212.083 312.13 216.241 306.773C216.638 306.232 216.852 305.58 216.852 304.909C216.852 304.238 216.638 303.586 216.241 303.045C215.76 302.423 214.995 301.83 215.137 301.06C215.243 300.498 215.831 299.992 215.603 299.465C215.496 299.212 215.238 299.075 215.036 298.893C214.327 298.24 214.418 297.126 214.357 296.169C214.2 293.743 212.747 291.611 211.319 289.631C211.034 289.161 210.656 288.755 210.21 288.436C209.835 288.208 209.389 288.107 209.014 287.874C207.688 287.043 207.784 285.109 207.146 283.676C206.315 281.787 204.224 280.824 202.852 279.29C201.104 277.34 200.659 274.621 198.8 272.914C198.613 272.73 198.411 272.561 198.198 272.408C199.119 275.269 199.21 278.323 199.276 281.336C199.454 291.661 196.871 302.352 198.081 312.611C199.033 320.749 194.03 328.872 186.915 332.938C184.18 334.498 181.193 335.541 178.225 336.6C173.774 338.175 169.338 339.8 164.973 341.623C161.887 342.899 158.848 344.275 155.857 345.75C152.16 347.545 148.561 349.536 145.076 351.716C140.792 354.44 136.508 357.21 133.464 361.277C130.522 361.196 127.828 359.428 125.964 357.15C124.101 354.871 122.926 352.086 121.857 349.371C120.91 347.016 119.979 344.586 119.908 342.049C119.92 341.776 120.01 341.513 120.166 341.289C120.322 341.065 120.538 340.889 120.789 340.783L141.131 330.001L144.934 327.976C153.264 323.555 161.894 319.468 170.224 315.052C170.786 315.219 171.237 314.581 171.404 314.039C171.571 313.498 171.687 312.799 172.214 312.556C172.477 312.429 172.822 312.434 173.019 312.211C173.148 312.012 173.198 311.772 173.161 311.538C172.893 307.487 169.986 303.805 170.568 299.81C170.816 298.108 171.693 296.432 171.313 294.746C171.044 293.586 170.214 292.649 169.763 291.55C168.75 289.094 169.763 286.137 168.669 283.731C167.942 282.15 167.448 280.471 167.201 278.748C166.677 275.317 165.628 271.986 164.091 268.873C163.352 267.299 162.388 265.841 161.23 264.544C160.617 263.885 159.929 263.298 159.346 262.614C157.579 260.518 156.926 257.722 156.424 255.018C155.513 250.121 154.905 245.042 156.019 240.191C156.404 238.535 156.992 236.894 156.966 235.198C156.941 232.954 155.953 230.336 157.513 228.716C158.159 228.136 158.944 227.733 159.792 227.546C163.377 226.477 167.11 225.991 170.821 225.52L187.811 223.297C189.756 223.039 191.746 222.791 193.463 221.823C195.767 220.552 197.296 218.198 198.233 215.747C201.216 217.924 202.33 221.98 204.71 224.791C205.87 226.163 207.303 227.272 208.574 228.533C210.128 230.17 211.552 231.926 212.833 233.785C216.378 238.651 219.922 243.553 222.454 249.012C223.776 251.848 224.799 254.805 225.852 257.748C230 269.329 236.76 280.323 239.566 292.295C240.254 295.222 242.042 297.865 242.321 300.858C242.635 304.033 241.166 307.102 239.642 309.927Z" fill="#252539"/>
<path d="M150.667 213.741C150.25 214.511 150.034 215.373 150.039 216.248C150.418 214.374 152.996 213.336 153.163 211.483C153.239 210.627 153.082 210.667 152.555 211.118C151.755 211.812 151.406 213.007 150.667 213.741Z" fill="#057EEC"/>
<path d="M158.521 219.433C157.977 219.893 157.57 220.494 157.346 221.17C156.908 222.122 156.824 223.2 157.108 224.208C157.488 224.031 157.615 223.565 157.731 223.16C157.918 222.529 158.188 221.926 158.536 221.368C158.84 220.861 160.243 219.732 160.238 219.2C160.223 218.385 158.896 219.144 158.521 219.433Z" fill="#057EEC"/>
<path d="M159.428 156.7C158.236 157.725 156.923 158.599 155.518 159.303C151.847 161.161 147.78 162.144 144.084 163.946C142.26 164.881 140.488 165.914 138.776 167.041L127.788 174.004C126.905 174.509 126.091 175.127 125.367 175.842C124.045 177.25 124.05 179.726 122.835 181.235C121.62 182.744 119.523 183.595 117.502 183.696C115.478 183.708 113.468 183.365 111.562 182.683C110.408 182.338 109.275 181.925 108.169 181.448C107.013 180.957 105.918 180.331 104.908 179.584C102.948 178.105 101.363 175.953 101.07 173.507C100.938 171.829 101.16 170.141 101.723 168.555C102.027 167.522 102.418 166.518 102.893 165.552C103.163 165.002 103.474 164.474 103.825 163.972C106.357 160.397 110.798 158.72 115.097 157.895C117.356 157.454 119.655 157.186 121.939 156.801C123.032 157.044 124.14 157.213 125.256 157.307C128.745 157.556 132.198 156.619 135.571 155.687L139.247 154.674C141.091 154.168 142.012 151.94 143.876 151.55C144.709 151.43 145.556 151.473 146.373 151.676C150.155 152.395 153.969 153.322 157.296 155.246C158.04 155.679 158.753 156.165 159.428 156.7Z" fill="#057EEC"/>
<path d="M168.391 107.508C167.92 111.989 164.137 115.281 161.808 119.155C160.688 121.034 159.903 123.095 158.896 125.039C157.741 127.16 156.456 129.206 155.047 131.167L150.93 137.143C148.509 140.657 146.063 144.202 142.969 147.144C137.576 148.061 133.054 152.066 127.939 154.011C123.848 155.565 119.386 155.778 115.092 156.614C110.798 157.449 106.346 159.146 103.824 162.691C102.885 164.089 102.174 165.627 101.718 167.248C101.152 168.832 100.931 170.519 101.07 172.196C101.378 174.637 102.943 176.784 104.903 178.273C106.863 179.761 109.207 180.643 111.557 181.372C113.463 182.051 115.473 182.394 117.497 182.385C119.523 182.283 121.579 181.503 122.835 179.923C124.091 178.343 124.03 175.938 125.367 174.53C126.093 173.816 126.908 173.198 127.792 172.692L138.781 165.729C140.492 164.609 142.262 163.583 144.083 162.655C147.78 160.847 151.847 159.87 155.518 158.011C159.189 156.153 162.608 153.084 163.342 149.033C165.58 136.585 174.194 126.093 181.572 115.813C181.329 115.762 181.405 115.21 181.314 114.977C180.372 112.536 178.276 110.698 175.916 109.538C173.556 108.379 170.923 108.055 168.391 107.508Z" fill="#00A1FF"/>
<path d="M129.539 107.599C129.676 106.249 129.41 104.889 128.775 103.69C127.554 101.664 124.997 100.95 122.698 100.474C120.473 100.018 118.238 99.6267 115.993 99.2993C114.15 99.0309 112.261 98.7929 110.448 99.2081C107.916 99.7601 105.855 101.436 103.51 102.479C100.74 103.715 97.6715 104.039 94.7141 104.723C91.7567 105.406 88.7284 106.566 86.8749 108.967C85.4671 110.79 84.905 113.119 84.4847 115.388C80.9753 134.322 84.7531 153.743 85.4722 172.986C85.7507 180.476 85.4114 188.482 81.1323 194.635L93.5949 194.306C96.7853 194.225 100.214 194.057 102.71 192.088C104.918 190.356 105.961 187.565 106.908 184.922C107.653 182.841 108.402 180.719 108.498 178.511C108.696 173.989 106.128 169.548 106.979 165.096C107.602 161.774 110.018 159.09 112.605 156.908C115.193 154.725 118.069 152.856 120.161 150.183C123.898 145.458 124.612 139.001 124.146 133C123.868 129.43 123.23 125.86 123.539 122.29C123.771 119.621 124.617 116.866 126.364 114.785C128.329 112.425 129.367 110.947 129.539 107.599Z" fill="black"/>
<path opacity="0.1" d="M222.409 298.842L199.535 354.623C198.236 353.692 197.15 352.496 196.349 351.113C198.187 344.16 200.076 337.091 203.819 330.948C205.039 328.923 206.437 327.074 207.693 325.099C211.334 319.377 212.083 312.156 216.241 306.798C216.638 306.258 216.852 305.605 216.852 304.934C216.852 304.264 216.638 303.611 216.241 303.071C215.76 302.448 214.995 301.855 215.137 301.086C215.243 300.524 215.831 300.017 215.603 299.49C215.496 299.237 215.238 299.101 215.036 298.918C214.327 298.265 214.418 297.151 214.357 296.194C214.2 293.768 212.747 291.636 211.319 289.656C211.034 289.187 210.656 288.78 210.21 288.461C209.835 288.233 209.389 288.132 209.014 287.899C207.688 287.068 207.784 285.134 207.146 283.701C206.315 281.812 204.224 280.85 202.851 279.315C201.104 277.366 200.659 274.646 198.8 272.94L198.643 272.545L200.426 261.784L222.409 298.842Z" fill="black"/>
<path d="M474.635 234.605C474.635 234.605 454.048 255.192 465.67 285.738C477.292 316.284 445.752 367.083 445.752 367.083C445.752 367.083 446.091 367.033 446.736 366.925C489.017 359.461 510.023 311.108 486.513 275.184C477.75 261.825 470.576 246.158 474.635 234.605Z" fill="#0582F0"/>
<path opacity="0.1" d="M474.635 234.949C474.635 234.949 454.048 255.537 465.67 286.083C477.292 316.629 445.752 367.422 445.752 367.422C445.752 367.422 446.091 367.373 446.736 367.265C489.017 359.801 510.023 311.447 486.513 275.523C477.75 262.169 470.576 246.503 474.635 234.949Z" fill="#00A1FF"/>
<path d="M474.636 234.605C474.636 234.605 463.014 259.837 474.636 280.424C486.258 301.011 476.604 358.782 445.748 367.083" stroke="#3572D9" stroke-miterlimit="10"/>
<path d="M511.303 317.868C511.303 317.868 487.813 314.129 485.673 335.178C483.532 356.228 440.488 359.146 440.488 359.146L441.295 359.682C476.821 383.005 510.786 374.537 505.664 343.568C503.775 332.059 503.932 320.496 511.303 317.868Z" fill="#008BFF"/>
<path d="M511.303 317.868C511.303 317.868 493.068 321.869 494.573 338.451C496.079 355.032 467.511 374.906 440.508 359.151" stroke="#3572D9" stroke-miterlimit="10"/>
<path d="M490.637 359.913C490.637 359.913 472.136 356.213 467.201 351.278C462.266 346.343 440.065 337.712 437.6 343.897C435.135 350.082 404.298 371.034 425.264 374.734C446.23 378.434 474.602 379.654 480.767 377.194C486.932 374.734 490.637 359.913 490.637 359.913Z" fill="#C3C2C8"/>
<path d="M425.264 372.426C446.234 376.126 474.601 377.347 480.766 374.887C485.465 373.007 488.727 363.983 490.016 359.781L490.632 359.909C490.632 359.909 486.931 374.709 480.766 377.175C474.601 379.64 446.23 378.41 425.264 374.714C419.211 373.647 417.479 371.137 418.134 367.963C418.646 370.035 420.756 371.629 425.264 372.426Z" fill="#000018" fill-opacity="0.16"/>
</svg>
